<?xml version="1.0" encoding="iso-8859-1"?>
<!-- Generator: Adobe Illustrator 19.0.0, SVG Export Plug-In . SVG Version: 6.00 Build 0)  -->
<svg version="1.1" id="Layer_1" xmlns="http://www.w3.org/2000/svg" xmlns:xlink="http://www.w3.org/1999/xlink" x="0px" y="0px"
	 viewBox="0 0 512 512" style="enable-background:new 0 0 512 512;" xml:space="preserve">
<g>
	<g>
		<path d="M503.562,272.168c0-25.965-21.124-47.088-47.088-47.088h-16.03h-69.345c13.222-23.935,20.253-46.525,20.253-77.724v-5.042
			c0-0.003,0-0.005,0-0.008c-0.005-16.782-6.491-32.607-18.267-44.559c-11.769-11.945-27.482-18.669-44.245-18.931
			c-0.16-0.002-0.321-0.004-0.481-0.004c-16.247,0-30.455,12.922-31.789,29.023c-6.361,76.781-80.346,116.349-129.835,140.415
			v-7.945c0-8.3-6.729-15.028-15.028-15.028H23.466c-8.3,0-15.028,6.729-15.028,15.028v256.48c0,8.299,6.729,15.028,15.028,15.028
			h96.18c18.422,0,34.396-10.639,42.129-26.091C215.299,508.972,261.799,512,315.199,512c9.121,0,18.452-0.088,28.046-0.179
			c10.609-0.1,21.579-0.204,33.079-0.204h47.515c25.965,0,47.088-21.124,47.088-47.088c0-8.73-2.388-16.912-6.545-23.929
			c13.529-8.283,22.575-23.199,22.575-40.191c0-8.73-2.387-16.912-6.545-23.929c13.529-8.283,22.575-23.199,22.575-40.191
			c0-12.228-4.687-23.379-12.356-31.758C498.635,296.085,503.562,284.694,503.562,272.168z M136.678,464.724
			c0,9.392-7.64,17.032-17.032,17.032h-17.032v-49.092c0-8.3-6.729-15.028-15.028-15.028c-8.299,0-15.028,6.729-15.028,15.028
			v49.092H38.495V255.332h98.184V464.724z M424.414,319.256h16.03h15.455c9.392,0,17.032,7.64,17.032,17.032
			s-7.64,17.032-17.032,17.032h-15.455h-0.575h-15.455c-8.3,0-15.028,6.729-15.028,15.028s6.729,15.028,15.028,15.028h15.455
			c9.392,0,17.032,7.64,17.032,17.032s-7.64,17.032-17.032,17.032h-16.03c-8.3,0-15.028,6.729-15.028,15.028
			c0,8.299,6.729,15.028,15.028,15.028c9.392,0,17.032,7.64,17.032,17.032c0,9.392-7.64,17.032-17.032,17.032h-47.515
			c-11.642,0-22.684,0.104-33.363,0.206c-66.992,0.633-116.21,1.101-176.029-26.674V281.537h-0.001
			c1.564-0.756,3.169-1.531,4.806-2.32c26.125-12.596,61.904-29.846,92.668-55.973c37.661-31.986,58.562-69.981,62.119-112.929
			c0.042-0.51,1.022-1.449,1.829-1.449c0.005,0,0.011,0,0.016,0c18.156,0.284,32.927,15.293,32.927,33.457v5.032
			c0,31.24-8.147,51.006-25.188,77.724h-23.904c-8.3,0-15.028,6.729-15.028,15.028c0,8.3,6.729,15.028,15.028,15.028h32.167
			c0.015,0,0.03,0,0.045,0h96.028h16.03c9.392,0,17.032,7.64,17.032,17.032c0,9.392-7.64,17.032-17.032,17.032h-16.03h-16.03
			c-8.3,0-15.028,6.729-15.028,15.028C409.386,312.527,416.115,319.256,424.414,319.256z"/>
	</g>
</g>
<g>
	<g>
		<path d="M472.307,111.062h-32.06c-8.3,0-15.028,6.729-15.028,15.028c0,8.299,6.729,15.028,15.028,15.028h32.06
			c8.3,0,15.028-6.729,15.028-15.028C487.335,117.791,480.607,111.062,472.307,111.062z"/>
	</g>
</g>
<g>
	<g>
		<path d="M247.887,111.062h-32.06c-8.3,0-15.028,6.729-15.028,15.028c0,8.299,6.729,15.028,15.028,15.028h32.06
			c8.299,0,15.028-6.729,15.028-15.028C262.915,117.791,256.186,111.062,247.887,111.062z"/>
	</g>
</g>
<g>
	<g>
		<path d="M308.991,35.282l-16.03-27.765c-4.15-7.188-13.341-9.651-20.528-5.5c-7.188,4.15-9.65,13.341-5.5,20.528l16.03,27.765
			c2.783,4.822,7.835,7.516,13.028,7.516c2.549,0,5.134-0.649,7.5-2.016C310.678,51.661,313.141,42.47,308.991,35.282z"/>
	</g>
</g>
<g>
	<g>
		<path d="M415.701,2.017c-7.188-4.152-16.38-1.687-20.528,5.5l-16.03,27.765c-4.151,7.187-1.688,16.379,5.5,20.528
			c2.366,1.367,4.95,2.016,7.5,2.016c5.194,0,10.246-2.695,13.028-7.516l16.03-27.765C425.351,15.358,422.889,6.167,415.701,2.017z"
			/>
	</g>
</g>
<g>
</g>
<g>
</g>
<g>
</g>
<g>
</g>
<g>
</g>
<g>
</g>
<g>
</g>
<g>
</g>
<g>
</g>
<g>
</g>
<g>
</g>
<g>
</g>
<g>
</g>
<g>
</g>
<g>
</g>
</svg>
